<svg width="1440" height="582" viewBox="0 0 1440 582" fill="none" xmlns="http://www.w3.org/2000/svg">
<path d="M0 530.51C202.563 530.51 347.231 495.633 480 497.758C789.192 502.705 643.192 355.682 960 355.682C1304.96 355.682 1222.4 226 1440 226" stroke="#5F82FF" stroke-width="3"/>
<path d="M480 497.758C347.231 495.633 202.563 530.51 0 530.51V573H1440V226C1222.4 226 1304.96 355.682 960 355.682C643.192 355.682 789.192 502.705 480 497.758Z" fill="url(#paint0_linear_6_373)" fill-opacity="0.48"/>
<g filter="url(#filter0_d_6_373)">
<ellipse cx="515.142" cy="497.5" rx="7.4948" ry="7.5" fill="white"/>
<path d="M521.637 497.5C521.637 501.091 518.729 504 515.142 504C511.556 504 508.647 501.091 508.647 497.5C508.647 493.909 511.556 491 515.142 491C518.729 491 521.637 493.909 521.637 497.5Z" stroke="#5E80FE" stroke-width="2"/>
</g>
<line x1="923.859" y1="308" x2="923.859" y2="497" stroke="#D8E0F7"/>
<g filter="url(#filter1_d_6_373)">
<ellipse cx="923.859" cy="356.5" rx="7.4948" ry="7.5" fill="white"/>
<path d="M930.353 356.5C930.353 360.091 927.445 363 923.859 363C920.272 363 917.364 360.091 917.364 356.5C917.364 352.909 920.272 350 923.859 350C927.445 350 930.353 352.909 930.353 356.5Z" stroke="#5E80FE" stroke-width="2"/>
</g>
<line x1="1331.58" y1="108" x2="1331.58" y2="425" stroke="#D8E0F7"/>
<g filter="url(#filter2_d_6_373)">
<ellipse cx="1331.58" cy="242.5" rx="7.4948" ry="7.5" fill="white"/>
<path d="M1338.07 242.5C1338.07 246.091 1335.16 249 1331.58 249C1327.99 249 1325.08 246.091 1325.08 242.5C1325.08 238.909 1327.99 236 1331.58 236C1335.16 236 1338.07 238.909 1338.07 242.5Z" stroke="#5E80FE" stroke-width="2"/>
</g>
<line x1="515.143" y1="486" x2="515.143" y2="545" stroke="#D8E0F7"/>
<line x1="107.426" y1="370" x2="107.426" y2="560" stroke="#D8E0F7"/>
<g filter="url(#filter3_d_6_373)">
<ellipse cx="107.425" cy="527.5" rx="7.4948" ry="7.5" fill="white"/>
<path d="M113.92 527.5C113.92 531.091 111.012 534 107.425 534C103.839 534 100.931 531.091 100.931 527.5C100.931 523.909 103.839 521 107.425 521C111.012 521 113.92 523.909 113.92 527.5Z" stroke="#5E80FE" stroke-width="2"/>
</g>
<g filter="url(#filter4_d_6_373)">
<path d="M264.537 401.48C258.068 401.48 252.824 406.83 252.824 413.429H276.249C276.249 406.83 271.005 401.48 264.537 401.48Z" fill="white"/>
</g>
<g filter="url(#filter5_d_6_373)">
<path d="M310.468 407.455C301.462 407.455 294.162 414.862 294.162 424H326.773C326.773 414.862 319.473 407.455 310.468 407.455Z" fill="white"/>
</g>
<g filter="url(#filter6_d_6_373)">
<path d="M285.895 399.182C272.197 399.182 261.092 410.293 261.092 424H310.697C310.697 410.293 299.593 399.182 285.895 399.182Z" fill="white"/>
</g>
<g filter="url(#filter7_d_6_373)">
<path d="M1204.17 497.459C1185.4 497.459 1170.19 512.924 1170.19 532H1238.16C1238.16 512.924 1222.94 497.459 1204.17 497.459Z" fill="white"/>
</g>
<g filter="url(#filter8_d_6_373)">
<path d="M1180.86 468C1167.79 468 1157.2 478.781 1157.2 492.081H1204.53C1204.53 478.781 1193.93 468 1180.86 468Z" fill="white"/>
</g>
<g filter="url(#filter9_d_6_373)">
<path d="M1135.95 480.189C1107.39 480.189 1084.25 503.386 1084.25 532H1187.64C1187.64 503.386 1164.5 480.189 1135.95 480.189Z" fill="white"/>
</g>
<g filter="url(#filter10_d_6_373)">
<path d="M1262.03 56C1240.56 56 1223.15 73.4609 1223.15 95H1300.91C1300.91 73.4609 1283.5 56 1262.03 56Z" fill="white"/>
</g>
<g filter="url(#filter11_d_6_373)">
<path d="M1278.61 89C1266.19 89 1256.13 99.2975 1256.13 112H1301.1C1301.1 99.2975 1291.03 89 1278.61 89Z" fill="white"/>
</g>
<g filter="url(#filter12_d_6_373)">
<path d="M275.309 95C262.891 95 252.824 105.297 252.824 118H297.793C297.793 105.297 287.727 95 275.309 95Z" fill="white"/>
</g>
<g filter="url(#filter13_d_6_373)">
<path d="M74.9481 255C74.9481 213.026 41.6164 179 0.499756 179V255H74.9481Z" fill="white"/>
</g>
<g filter="url(#filter14_d_6_373)">
<path d="M316.892 389C311.435 389 307.011 393.559 307.011 399.182H326.773C326.773 393.559 322.349 389 316.892 389Z" fill="white"/>
</g>
<g filter="url(#filter15_d_6_373)">
<path d="M1222.65 40C1214.1 40 1207.16 47.1634 1207.16 56H1238.14C1238.14 47.1634 1231.21 40 1222.65 40Z" fill="white"/>
</g>
<defs>
<filter id="filter0_d_6_373" x="492.647" y="475" width="44.9895" height="45" filterUnits="userSpaceOnUse" color-interpolation-filters="sRGB">
<feFlood flood-opacity="0" result="BackgroundImageFix"/>
<feColorMatrix in="SourceAlpha" type="matrix" values="0 0 0 0 0 0 0 0 0 0 0 0 0 0 0 0 0 0 127 0" result="hardAlpha"/>
<feOffset/>
<feGaussianBlur stdDeviation="7.5"/>
<feColorMatrix type="matrix" values="0 0 0 0 0.323144 0 0 0 0 0.512664 0 0 0 0 1 0 0 0 0.25 0"/>
<feBlend mode="normal" in2="BackgroundImageFix" result="effect1_dropShadow_6_373"/>
<feBlend mode="normal" in="SourceGraphic" in2="effect1_dropShadow_6_373" result="shape"/>
</filter>
<filter id="filter1_d_6_373" x="901.364" y="334" width="44.9895" height="45" filterUnits="userSpaceOnUse" color-interpolation-filters="sRGB">
<feFlood flood-opacity="0" result="BackgroundImageFix"/>
<feColorMatrix in="SourceAlpha" type="matrix" values="0 0 0 0 0 0 0 0 0 0 0 0 0 0 0 0 0 0 127 0" result="hardAlpha"/>
<feOffset/>
<feGaussianBlur stdDeviation="7.5"/>
<feColorMatrix type="matrix" values="0 0 0 0 0.323144 0 0 0 0 0.512664 0 0 0 0 1 0 0 0 0.25 0"/>
<feBlend mode="normal" in2="BackgroundImageFix" result="effect1_dropShadow_6_373"/>
<feBlend mode="normal" in="SourceGraphic" in2="effect1_dropShadow_6_373" result="shape"/>
</filter>
<filter id="filter2_d_6_373" x="1309.08" y="220" width="44.9895" height="45" filterUnits="userSpaceOnUse" color-interpolation-filters="sRGB">
<feFlood flood-opacity="0" result="BackgroundImageFix"/>
<feColorMatrix in="SourceAlpha" type="matrix" values="0 0 0 0 0 0 0 0 0 0 0 0 0 0 0 0 0 0 127 0" result="hardAlpha"/>
<feOffset/>
<feGaussianBlur stdDeviation="7.5"/>
<feColorMatrix type="matrix" values="0 0 0 0 0.323144 0 0 0 0 0.512664 0 0 0 0 1 0 0 0 0.25 0"/>
<feBlend mode="normal" in2="BackgroundImageFix" result="effect1_dropShadow_6_373"/>
<feBlend mode="normal" in="SourceGraphic" in2="effect1_dropShadow_6_373" result="shape"/>
</filter>
<filter id="filter3_d_6_373" x="84.9307" y="505" width="44.9895" height="45" filterUnits="userSpaceOnUse" color-interpolation-filters="sRGB">
<feFlood flood-opacity="0" result="BackgroundImageFix"/>
<feColorMatrix in="SourceAlpha" type="matrix" values="0 0 0 0 0 0 0 0 0 0 0 0 0 0 0 0 0 0 127 0" result="hardAlpha"/>
<feOffset/>
<feGaussianBlur stdDeviation="7.5"/>
<feColorMatrix type="matrix" values="0 0 0 0 0.323144 0 0 0 0 0.512664 0 0 0 0 1 0 0 0 0.25 0"/>
<feBlend mode="normal" in2="BackgroundImageFix" result="effect1_dropShadow_6_373"/>
<feBlend mode="normal" in="SourceGraphic" in2="effect1_dropShadow_6_373" result="shape"/>
</filter>
<filter id="filter4_d_6_373" x="207.824" y="361.48" width="113.425" height="101.949" filterUnits="userSpaceOnUse" color-interpolation-filters="sRGB">
<feFlood flood-opacity="0" result="BackgroundImageFix"/>
<feColorMatrix in="SourceAlpha" type="matrix" values="0 0 0 0 0 0 0 0 0 0 0 0 0 0 0 0 0 0 127 0" result="hardAlpha"/>
<feOffset dy="5"/>
<feGaussianBlur stdDeviation="22.5"/>
<feColorMatrix type="matrix" values="0 0 0 0 0.593724 0 0 0 0 0.684469 0 0 0 0 0.888646 0 0 0 0.1 0"/>
<feBlend mode="normal" in2="BackgroundImageFix" result="effect1_dropShadow_6_373"/>
<feBlend mode="normal" in="SourceGraphic" in2="effect1_dropShadow_6_373" result="shape"/>
</filter>
<filter id="filter5_d_6_373" x="249.162" y="367.455" width="122.611" height="106.545" filterUnits="userSpaceOnUse" color-interpolation-filters="sRGB">
<feFlood flood-opacity="0" result="BackgroundImageFix"/>
<feColorMatrix in="SourceAlpha" type="matrix" values="0 0 0 0 0 0 0 0 0 0 0 0 0 0 0 0 0 0 127 0" result="hardAlpha"/>
<feOffset dy="5"/>
<feGaussianBlur stdDeviation="22.5"/>
<feColorMatrix type="matrix" values="0 0 0 0 0.593724 0 0 0 0 0.684469 0 0 0 0 0.888646 0 0 0 0.1 0"/>
<feBlend mode="normal" in2="BackgroundImageFix" result="effect1_dropShadow_6_373"/>
<feBlend mode="normal" in="SourceGraphic" in2="effect1_dropShadow_6_373" result="shape"/>
</filter>
<filter id="filter6_d_6_373" x="216.092" y="359.182" width="139.605" height="114.818" filterUnits="userSpaceOnUse" color-interpolation-filters="sRGB">
<feFlood flood-opacity="0" result="BackgroundImageFix"/>
<feColorMatrix in="SourceAlpha" type="matrix" values="0 0 0 0 0 0 0 0 0 0 0 0 0 0 0 0 0 0 127 0" result="hardAlpha"/>
<feOffset dy="5"/>
<feGaussianBlur stdDeviation="22.5"/>
<feColorMatrix type="matrix" values="0 0 0 0 0.593724 0 0 0 0 0.684469 0 0 0 0 0.888646 0 0 0 0.1 0"/>
<feBlend mode="normal" in2="BackgroundImageFix" result="effect1_dropShadow_6_373"/>
<feBlend mode="normal" in="SourceGraphic" in2="effect1_dropShadow_6_373" result="shape"/>
</filter>
<filter id="filter7_d_6_373" x="1125.19" y="457.459" width="157.974" height="124.541" filterUnits="userSpaceOnUse" color-interpolation-filters="sRGB">
<feFlood flood-opacity="0" result="BackgroundImageFix"/>
<feColorMatrix in="SourceAlpha" type="matrix" values="0 0 0 0 0 0 0 0 0 0 0 0 0 0 0 0 0 0 127 0" result="hardAlpha"/>
<feOffset dy="5"/>
<feGaussianBlur stdDeviation="22.5"/>
<feColorMatrix type="matrix" values="0 0 0 0 0.593724 0 0 0 0 0.684469 0 0 0 0 0.888646 0 0 0 0.1 0"/>
<feBlend mode="normal" in2="BackgroundImageFix" result="effect1_dropShadow_6_373"/>
<feBlend mode="normal" in="SourceGraphic" in2="effect1_dropShadow_6_373" result="shape"/>
</filter>
<filter id="filter8_d_6_373" x="1112.2" y="428" width="137.334" height="114.081" filterUnits="userSpaceOnUse" color-interpolation-filters="sRGB">
<feFlood flood-opacity="0" result="BackgroundImageFix"/>
<feColorMatrix in="SourceAlpha" type="matrix" values="0 0 0 0 0 0 0 0 0 0 0 0 0 0 0 0 0 0 127 0" result="hardAlpha"/>
<feOffset dy="5"/>
<feGaussianBlur stdDeviation="22.5"/>
<feColorMatrix type="matrix" values="0 0 0 0 0.593724 0 0 0 0 0.684469 0 0 0 0 0.888646 0 0 0 0.1 0"/>
<feBlend mode="normal" in2="BackgroundImageFix" result="effect1_dropShadow_6_373"/>
<feBlend mode="normal" in="SourceGraphic" in2="effect1_dropShadow_6_373" result="shape"/>
</filter>
<filter id="filter9_d_6_373" x="1039.25" y="440.189" width="193.397" height="141.811" filterUnits="userSpaceOnUse" color-interpolation-filters="sRGB">
<feFlood flood-opacity="0" result="BackgroundImageFix"/>
<feColorMatrix in="SourceAlpha" type="matrix" values="0 0 0 0 0 0 0 0 0 0 0 0 0 0 0 0 0 0 127 0" result="hardAlpha"/>
<feOffset dy="5"/>
<feGaussianBlur stdDeviation="22.5"/>
<feColorMatrix type="matrix" values="0 0 0 0 0.593724 0 0 0 0 0.684469 0 0 0 0 0.888646 0 0 0 0.1 0"/>
<feBlend mode="normal" in2="BackgroundImageFix" result="effect1_dropShadow_6_373"/>
<feBlend mode="normal" in="SourceGraphic" in2="effect1_dropShadow_6_373" result="shape"/>
</filter>
<filter id="filter10_d_6_373" x="1178.15" y="16" width="167.76" height="129" filterUnits="userSpaceOnUse" color-interpolation-filters="sRGB">
<feFlood flood-opacity="0" result="BackgroundImageFix"/>
<feColorMatrix in="SourceAlpha" type="matrix" values="0 0 0 0 0 0 0 0 0 0 0 0 0 0 0 0 0 0 127 0" result="hardAlpha"/>
<feOffset dy="5"/>
<feGaussianBlur stdDeviation="22.5"/>
<feColorMatrix type="matrix" values="0 0 0 0 0.593724 0 0 0 0 0.684469 0 0 0 0 0.888646 0 0 0 0.1 0"/>
<feBlend mode="normal" in2="BackgroundImageFix" result="effect1_dropShadow_6_373"/>
<feBlend mode="normal" in="SourceGraphic" in2="effect1_dropShadow_6_373" result="shape"/>
</filter>
<filter id="filter11_d_6_373" x="1211.13" y="49" width="134.969" height="113" filterUnits="userSpaceOnUse" color-interpolation-filters="sRGB">
<feFlood flood-opacity="0" result="BackgroundImageFix"/>
<feColorMatrix in="SourceAlpha" type="matrix" values="0 0 0 0 0 0 0 0 0 0 0 0 0 0 0 0 0 0 127 0" result="hardAlpha"/>
<feOffset dy="5"/>
<feGaussianBlur stdDeviation="22.5"/>
<feColorMatrix type="matrix" values="0 0 0 0 0.593724 0 0 0 0 0.684469 0 0 0 0 0.888646 0 0 0 0.1 0"/>
<feBlend mode="normal" in2="BackgroundImageFix" result="effect1_dropShadow_6_373"/>
<feBlend mode="normal" in="SourceGraphic" in2="effect1_dropShadow_6_373" result="shape"/>
</filter>
<filter id="filter12_d_6_373" x="207.824" y="55" width="134.969" height="113" filterUnits="userSpaceOnUse" color-interpolation-filters="sRGB">
<feFlood flood-opacity="0" result="BackgroundImageFix"/>
<feColorMatrix in="SourceAlpha" type="matrix" values="0 0 0 0 0 0 0 0 0 0 0 0 0 0 0 0 0 0 127 0" result="hardAlpha"/>
<feOffset dy="5"/>
<feGaussianBlur stdDeviation="22.5"/>
<feColorMatrix type="matrix" values="0 0 0 0 0.593724 0 0 0 0 0.684469 0 0 0 0 0.888646 0 0 0 0.1 0"/>
<feBlend mode="normal" in2="BackgroundImageFix" result="effect1_dropShadow_6_373"/>
<feBlend mode="normal" in="SourceGraphic" in2="effect1_dropShadow_6_373" result="shape"/>
</filter>
<filter id="filter13_d_6_373" x="-44.5002" y="139" width="164.448" height="166" filterUnits="userSpaceOnUse" color-interpolation-filters="sRGB">
<feFlood flood-opacity="0" result="BackgroundImageFix"/>
<feColorMatrix in="SourceAlpha" type="matrix" values="0 0 0 0 0 0 0 0 0 0 0 0 0 0 0 0 0 0 127 0" result="hardAlpha"/>
<feOffset dy="5"/>
<feGaussianBlur stdDeviation="22.5"/>
<feColorMatrix type="matrix" values="0 0 0 0 0.593724 0 0 0 0 0.684469 0 0 0 0 0.888646 0 0 0 0.1 0"/>
<feBlend mode="normal" in2="BackgroundImageFix" result="effect1_dropShadow_6_373"/>
<feBlend mode="normal" in="SourceGraphic" in2="effect1_dropShadow_6_373" result="shape"/>
</filter>
<filter id="filter14_d_6_373" x="262.011" y="349" width="109.762" height="100.182" filterUnits="userSpaceOnUse" color-interpolation-filters="sRGB">
<feFlood flood-opacity="0" result="BackgroundImageFix"/>
<feColorMatrix in="SourceAlpha" type="matrix" values="0 0 0 0 0 0 0 0 0 0 0 0 0 0 0 0 0 0 127 0" result="hardAlpha"/>
<feOffset dy="5"/>
<feGaussianBlur stdDeviation="22.5"/>
<feColorMatrix type="matrix" values="0 0 0 0 0.593724 0 0 0 0 0.684469 0 0 0 0 0.888646 0 0 0 0.1 0"/>
<feBlend mode="normal" in2="BackgroundImageFix" result="effect1_dropShadow_6_373"/>
<feBlend mode="normal" in="SourceGraphic" in2="effect1_dropShadow_6_373" result="shape"/>
</filter>
<filter id="filter15_d_6_373" x="1162.16" y="0" width="120.979" height="106" filterUnits="userSpaceOnUse" color-interpolation-filters="sRGB">
<feFlood flood-opacity="0" result="BackgroundImageFix"/>
<feColorMatrix in="SourceAlpha" type="matrix" values="0 0 0 0 0 0 0 0 0 0 0 0 0 0 0 0 0 0 127 0" result="hardAlpha"/>
<feOffset dy="5"/>
<feGaussianBlur stdDeviation="22.5"/>
<feColorMatrix type="matrix" values="0 0 0 0 0.593724 0 0 0 0 0.684469 0 0 0 0 0.888646 0 0 0 0.1 0"/>
<feBlend mode="normal" in2="BackgroundImageFix" result="effect1_dropShadow_6_373"/>
<feBlend mode="normal" in="SourceGraphic" in2="effect1_dropShadow_6_373" result="shape"/>
</filter>
<linearGradient id="paint0_linear_6_373" x1="278.273" y1="573.443" x2="278.273" y2="118.005" gradientUnits="userSpaceOnUse">
<stop stop-color="#4B71FF" stop-opacity="0"/>
<stop offset="1" stop-color="#6B89F8"/>
</linearGradient>
</defs>
</svg>
